<svg width="24" height="24" viewBox="0 0 24 24" fill="none" xmlns="http://www.w3.org/2000/svg">
<path fill-rule="evenodd" clip-rule="evenodd" d="M14.4975 2.8135C14.8986 2.8135 15.2242 3.13809 15.2242 3.53803C15.2242 3.93797 14.8986 4.26256 14.4975 4.26256H7.45462C5.02431 4.26256 3.45353 5.92801 3.45353 8.50733V16.3149C3.45353 18.928 4.98652 20.5509 7.45462 20.5509H15.7921C18.2224 20.5509 19.7932 18.8884 19.7932 16.3149V9.51491C19.7932 9.11497 20.1187 8.79038 20.5199 8.79038C20.9211 8.79038 21.2467 9.11497 21.2467 9.51491V16.3149C21.2467 19.7153 19.0548 22 15.7921 22H7.45462C4.19192 22 2 19.7153 2 16.3149V8.50733C2 5.10205 4.19192 2.8135 7.45462 2.8135H14.4975ZM16.5473 9.41135C16.8652 9.65673 16.9233 10.1117 16.6772 10.4276L13.8379 14.0793C13.7197 14.2319 13.5453 14.3314 13.3534 14.3546C13.1596 14.3807 12.9678 14.3246 12.8147 14.2058L10.084 12.067L7.63137 15.2443C7.48795 15.4298 7.27283 15.5273 7.0548 15.5273C6.89976 15.5273 6.74374 15.4781 6.61196 15.3776C6.29412 15.1332 6.23404 14.6782 6.4792 14.3613L9.37948 10.6034C9.4977 10.4498 9.67309 10.3503 9.86496 10.3262C10.0607 10.3011 10.2526 10.3552 10.4047 10.4759L13.1373 12.6157L15.5279 9.5408C15.774 9.22298 16.2295 9.16405 16.5473 9.41135ZM19.4108 2C20.8391 2 22 3.15731 22 4.58126C22 6.0052 20.8391 7.16348 19.4108 7.16348C17.9834 7.16348 16.8216 6.0052 16.8216 4.58126C16.8216 3.15731 17.9834 2 19.4108 2ZM19.4108 3.44906C18.7848 3.44906 18.2751 3.95623 18.2751 4.58126C18.2751 5.20532 18.7848 5.71442 19.4108 5.71442C20.0368 5.71442 20.5465 5.20532 20.5465 4.58126C20.5465 3.95623 20.0368 3.44906 19.4108 3.44906Z" fill="white"/>
</svg>
