<svg width="24" height="24" viewBox="0 0 24 24" fill="none" xmlns="http://www.w3.org/2000/svg">
<path d="M3 8H12.5" stroke="white" stroke-width="1.5" stroke-miterlimit="10" stroke-linecap="round" stroke-linejoin="round"/>
<path d="M5.99615 16.5H7.99615" stroke="white" stroke-width="1.5" stroke-miterlimit="10" stroke-linecap="round" stroke-linejoin="round"/>
<path d="M10.4962 16.5H14.4962" stroke="white" stroke-width="1.5" stroke-miterlimit="10" stroke-linecap="round" stroke-linejoin="round"/>
<path d="M21 11.53V15.61C21 19.12 20.199 20 17.004 20H6.996C3.801 20 3 19.12 3 15.61V7.39C3 3.88 3.801 3 6.996 3H14.25" stroke="white" stroke-width="1.5" stroke-linecap="round" stroke-linejoin="round"/>
<path d="M19.0761 4.13L15.3661 7.84C15.2261 7.98 15.0861 8.26 15.0561 8.46L14.8561 9.88C14.7861 10.39 15.1461 10.75 15.6561 10.68L17.0761 10.48C17.2761 10.45 17.5561 10.31 17.6961 10.17L21.4061 6.46C22.0461 5.82 22.3461 5.08 21.4061 4.14C20.4561 3.19 19.7161 3.49 19.0761 4.13Z" stroke="white" stroke-width="1.5" stroke-miterlimit="10" stroke-linecap="round" stroke-linejoin="round"/>
<path d="M18.5461 4.66C18.8661 5.79 19.7461 6.67 20.8661 6.98" stroke="white" stroke-width="1.5" stroke-miterlimit="10" stroke-linecap="round" stroke-linejoin="round"/>
</svg>
