<svg width="24" height="24" viewBox="0 0 24 24" fill="none" xmlns="http://www.w3.org/2000/svg">
<path fill-rule="evenodd" clip-rule="evenodd" d="M7.54148 2.39072C8.50936 1.90678 9.68239 2.14366 10.3866 2.96527L12 4.84754L13.6134 2.96527C14.3176 2.14366 15.4906 1.90678 16.4585 2.39072C17.5909 2.95692 17.9856 4.20708 17.6424 5.24998H19C20.5188 5.24998 21.75 6.4812 21.75 7.99999V8.99999C21.75 9.85395 21.3608 10.617 20.75 11.1214V19C20.75 20.5188 19.5188 21.75 18 21.75H6C4.48122 21.75 3.25 20.5188 3.25 19V11.1214C2.63925 10.617 2.25 9.85395 2.25 8.99999V7.99999C2.25 6.4812 3.48122 5.24998 5 5.24998H6.35758C6.01444 4.20708 6.40908 2.95692 7.54148 2.39072ZM7.98375 6.74999C7.99421 6.75021 8.00466 6.7502 8.01509 6.74999H11.25V10.25H5C4.30964 10.25 3.75 9.69034 3.75 8.99999V7.99999C3.75 7.30963 4.30964 6.74999 5 6.74999H7.98375ZM11.25 11.75H4.75V19C4.75 19.6903 5.30964 20.25 6 20.25H11.25V11.75ZM12.75 20.25V11.75H19.25V19C19.25 19.6903 18.6904 20.25 18 20.25H12.75ZM12.75 10.25V6.74999H15.9849C15.9953 6.7502 16.0058 6.7502 16.0162 6.74999H19C19.6904 6.74999 20.25 7.30963 20.25 7.99999V8.99999C20.25 9.69034 19.6904 10.25 19 10.25H12.75ZM15.8212 5.24998C16.4201 4.91905 16.4089 4.04295 15.7877 3.73236C15.4355 3.55624 15.0086 3.64245 14.7523 3.94145L13.6307 5.24998H15.8212ZM10.3693 5.24998H8.17879C7.57995 4.91905 7.59112 4.04295 8.2123 3.73236C8.56454 3.55624 8.99145 3.64245 9.24774 3.94145L10.3693 5.24998Z" fill="white"/>
</svg>
