<svg width="16" height="16" viewBox="0 0 16 16" fill="none" xmlns="http://www.w3.org/2000/svg">
<path d="M9.3475 2.00004H11C11.3682 2.00004 11.6667 2.29852 11.6667 2.66671C11.6667 3.0349 11.3682 3.33337 11 3.33337H9.85384L7.52051 12.6667H8.66667C9.03486 12.6667 9.33333 12.9652 9.33333 13.3334C9.33333 13.7016 9.03486 14 8.66667 14H6.68138C6.67193 14.0002 6.66245 14.0002 6.65295 14H5C4.63181 14 4.33333 13.7016 4.33333 13.3334C4.33333 12.9652 4.63181 12.6667 5 12.6667H6.14614L8.47948 3.33337H7.33333C6.96514 3.33337 6.66667 3.0349 6.66667 2.66671C6.66667 2.29852 6.96514 2.00004 7.33333 2.00004H9.31815C9.3279 1.99982 9.33769 1.99982 9.3475 2.00004Z" fill="#A3A3A3"/>
</svg>
