<svg width="16" height="16" viewBox="0 0 16 16" fill="none" xmlns="http://www.w3.org/2000/svg">
<path fill-rule="evenodd" clip-rule="evenodd" d="M1.33334 7.99996C1.33334 6.15901 2.82572 4.66663 4.66667 4.66663H6.66667C7.03486 4.66663 7.33334 4.9651 7.33334 5.33329C7.33334 5.70148 7.03486 5.99996 6.66667 5.99996H4.66667C3.5621 5.99996 2.66667 6.89539 2.66667 7.99996C2.66667 9.10453 3.5621 9.99996 4.66667 9.99996H6.66667C7.03486 9.99996 7.33334 10.2984 7.33334 10.6666C7.33334 11.0348 7.03486 11.3333 6.66667 11.3333H4.66667C2.82572 11.3333 1.33334 9.84091 1.33334 7.99996Z" fill="#A3A3A3"/>
<path fill-rule="evenodd" clip-rule="evenodd" d="M8.66666 5.33329C8.66666 4.9651 8.96514 4.66663 9.33333 4.66663H11.3333C13.1743 4.66663 14.6667 6.15901 14.6667 7.99996C14.6667 9.84091 13.1743 11.3333 11.3333 11.3333H9.33333C8.96514 11.3333 8.66666 11.0348 8.66666 10.6666C8.66666 10.2984 8.96514 9.99996 9.33333 9.99996H11.3333C12.4379 9.99996 13.3333 9.10453 13.3333 7.99996C13.3333 6.89539 12.4379 5.99996 11.3333 5.99996H9.33333C8.96514 5.99996 8.66666 5.70148 8.66666 5.33329Z" fill="#A3A3A3"/>
<path fill-rule="evenodd" clip-rule="evenodd" d="M5.33332 8.00004C5.33332 7.63185 5.6318 7.33337 5.99999 7.33337H9.99999C10.3682 7.33337 10.6667 7.63185 10.6667 8.00004C10.6667 8.36823 10.3682 8.66671 9.99999 8.66671H5.99999C5.6318 8.66671 5.33332 8.36823 5.33332 8.00004Z" fill="#A3A3A3"/>
</svg>
