<svg width="16" height="16" viewBox="0 0 16 16" fill="none" xmlns="http://www.w3.org/2000/svg">
<path fill-rule="evenodd" clip-rule="evenodd" d="M4.66667 4.66667C4.66667 4.29848 4.96515 4 5.33334 4H13.3333C13.7015 4 14 4.29848 14 4.66667C14 5.03486 13.7015 5.33333 13.3333 5.33333H5.33334C4.96515 5.33333 4.66667 5.03486 4.66667 4.66667Z" fill="#A3A3A3"/>
<path fill-rule="evenodd" clip-rule="evenodd" d="M4.66667 8.00004C4.66667 7.63185 4.96515 7.33337 5.33334 7.33337H13.3333C13.7015 7.33337 14 7.63185 14 8.00004C14 8.36823 13.7015 8.66671 13.3333 8.66671H5.33334C4.96515 8.66671 4.66667 8.36823 4.66667 8.00004Z" fill="#A3A3A3"/>
<path fill-rule="evenodd" clip-rule="evenodd" d="M4.66667 11.3333C4.66667 10.9651 4.96515 10.6666 5.33334 10.6666H13.3333C13.7015 10.6666 14 10.9651 14 11.3333C14 11.7015 13.7015 12 13.3333 12H5.33334C4.96515 12 4.66667 11.7015 4.66667 11.3333Z" fill="#A3A3A3"/>
<path d="M3.33333 4.66667C3.33333 5.03486 3.03486 5.33333 2.66667 5.33333C2.29848 5.33333 2 5.03486 2 4.66667C2 4.29848 2.29848 4 2.66667 4C3.03486 4 3.33333 4.29848 3.33333 4.66667Z" fill="#A3A3A3"/>
<path d="M3.33333 8.00004C3.33333 8.36823 3.03486 8.66671 2.66667 8.66671C2.29848 8.66671 2 8.36823 2 8.00004C2 7.63185 2.29848 7.33337 2.66667 7.33337C3.03486 7.33337 3.33333 7.63185 3.33333 8.00004Z" fill="#A3A3A3"/>
<path d="M3.33333 11.3333C3.33333 11.7015 3.03486 12 2.66667 12C2.29848 12 2 11.7015 2 11.3333C2 10.9651 2.29848 10.6666 2.66667 10.6666C3.03486 10.6666 3.33333 10.9651 3.33333 11.3333Z" fill="#A3A3A3"/>
</svg>
