<svg width="16" height="16" viewBox="0 0 16 16" fill="none" xmlns="http://www.w3.org/2000/svg">
<path fill-rule="evenodd" clip-rule="evenodd" d="M12.4665 5.07594C11.6854 4.29489 10.4191 4.29489 9.63807 5.07594L5.86683 8.84717C5.60648 9.10752 5.60648 9.52963 5.86683 9.78998C6.12718 10.0503 6.54929 10.0503 6.80964 9.78998L10.5809 6.01874C10.8412 5.75839 11.2633 5.75839 11.5237 6.01874C11.784 6.27909 11.784 6.7012 11.5237 6.96155L7.75245 10.7328C6.9714 11.5138 5.70507 11.5138 4.92402 10.7328C4.14297 9.95174 4.14297 8.68541 4.92402 7.90436L8.69526 4.13313C9.99701 2.83138 12.1076 2.83138 13.4093 4.13313C14.7111 5.43487 14.7111 7.54542 13.4093 8.84717L9.63807 12.6184C7.81562 14.4409 4.86085 14.4409 3.0384 12.6184C1.21596 10.796 1.21596 7.84119 3.0384 6.01875L6.80964 2.24751C7.06999 1.98716 7.4921 1.98716 7.75245 2.24751C8.0128 2.50786 8.0128 2.92997 7.75245 3.19032L3.98121 6.96155C2.67947 8.2633 2.67947 10.3739 3.98121 11.6756C5.28296 12.9773 7.39351 12.9773 8.69526 11.6756L12.4665 7.90436C13.2475 7.12331 13.2475 5.85698 12.4665 5.07594Z" fill="#A3A3A3"/>
</svg>
