<svg width="16" height="16" viewBox="0 0 16 16" fill="none" xmlns="http://www.w3.org/2000/svg">
<path fill-rule="evenodd" clip-rule="evenodd" d="M2 4.00004C2 3.63185 2.29848 3.33337 2.66667 3.33337H13.3333C13.7015 3.33337 14 3.63185 14 4.00004C14 4.36823 13.7015 4.66671 13.3333 4.66671H2.66667C2.29848 4.66671 2 4.36823 2 4.00004Z" fill="#A3A3A3"/>
<path fill-rule="evenodd" clip-rule="evenodd" d="M4 6.66667C4 6.29848 4.29848 6 4.66667 6H11.3333C11.7015 6 12 6.29848 12 6.66667C12 7.03486 11.7015 7.33333 11.3333 7.33333H4.66667C4.29848 7.33333 4 7.03486 4 6.66667Z" fill="#A3A3A3"/>
<path fill-rule="evenodd" clip-rule="evenodd" d="M2 9.33329C2 8.9651 2.29848 8.66663 2.66667 8.66663H13.3333C13.7015 8.66663 14 8.9651 14 9.33329C14 9.70148 13.7015 9.99996 13.3333 9.99996H2.66667C2.29848 9.99996 2 9.70148 2 9.33329Z" fill="#A3A3A3"/>
<path fill-rule="evenodd" clip-rule="evenodd" d="M4 12C4 11.6319 4.29848 11.3334 4.66667 11.3334H11.3333C11.7015 11.3334 12 11.6319 12 12C12 12.3682 11.7015 12.6667 11.3333 12.6667H4.66667C4.29848 12.6667 4 12.3682 4 12Z" fill="#A3A3A3"/>
</svg>
