<svg width="16" height="16" viewBox="0 0 16 16" fill="none" xmlns="http://www.w3.org/2000/svg">
<path fill-rule="evenodd" clip-rule="evenodd" d="M4 4.18182C4 2.97683 4.97683 2 6.18182 2H8.66667C10.5076 2 12 3.49238 12 5.33333C12 6.28714 11.5994 7.14738 10.9573 7.75497C11.9771 8.32499 12.6667 9.4153 12.6667 10.6667C12.6667 12.5076 11.1743 14 9.33333 14H6.16667C4.97005 14 4 13.03 4 11.8333V4.18182ZM6.18182 3.33333H8.66667C9.77124 3.33333 10.6667 4.22876 10.6667 5.33333C10.6667 6.4379 9.77124 7.33333 8.66667 7.33333H5.33333V4.18182C5.33333 3.71321 5.71321 3.33333 6.18182 3.33333ZM5.33333 8.66667V11.8333C5.33333 12.2936 5.70643 12.6667 6.16667 12.6667H9.33333C10.4379 12.6667 11.3333 11.7712 11.3333 10.6667C11.3333 9.5621 10.4379 8.66667 9.33333 8.66667H5.33333Z" fill="#A3A3A3"/>
</svg>
