<svg width="16" height="16" viewBox="0 0 16 16" fill="none" xmlns="http://www.w3.org/2000/svg">
<path fill-rule="evenodd" clip-rule="evenodd" d="M8 13.3334C10.9455 13.3334 13.3333 10.9456 13.3333 8.00004C13.3333 5.05452 10.9455 2.66671 8 2.66671C5.05448 2.66671 2.66667 5.05452 2.66667 8.00004C2.66667 10.9456 5.05448 13.3334 8 13.3334ZM8 14.6667C11.6819 14.6667 14.6667 11.6819 14.6667 8.00004C14.6667 4.31814 11.6819 1.33337 8 1.33337C4.3181 1.33337 1.33334 4.31814 1.33334 8.00004C1.33334 11.6819 4.3181 14.6667 8 14.6667Z" fill="#A3A3A3"/>
<path fill-rule="evenodd" clip-rule="evenodd" d="M4.67711 8.72244C5.0145 8.57502 5.40752 8.72903 5.55493 9.06642C5.96703 10.0096 6.90753 10.6667 8 10.6667C9.09246 10.6667 10.033 10.0096 10.4451 9.06642C10.5925 8.72903 10.9855 8.57502 11.3229 8.72244C11.6603 8.86985 11.8143 9.26286 11.6669 9.60025C11.0502 11.0116 9.64129 12 8 12C6.35871 12 4.94976 11.0116 4.33312 9.60025C4.18571 9.26286 4.33972 8.86985 4.67711 8.72244Z" fill="#A3A3A3"/>
<path d="M6 6.00004C6 6.36823 5.70152 6.66671 5.33333 6.66671C4.96514 6.66671 4.66666 6.36823 4.66666 6.00004C4.66666 5.63185 4.96514 5.33337 5.33333 5.33337C5.70152 5.33337 6 5.63185 6 6.00004Z" fill="#A3A3A3"/>
<path d="M11.3333 6.00004C11.3333 6.36823 11.0349 6.66671 10.6667 6.66671C10.2985 6.66671 10 6.36823 10 6.00004C10 5.63185 10.2985 5.33337 10.6667 5.33337C11.0349 5.33337 11.3333 5.63185 11.3333 6.00004Z" fill="#A3A3A3"/>
</svg>
