<svg width="16" height="16" viewBox="0 0 16 16" fill="none" xmlns="http://www.w3.org/2000/svg">
<path fill-rule="evenodd" clip-rule="evenodd" d="M10.6667 6.66671C11.403 6.66671 12 6.06975 12 5.33337C12 4.59699 11.403 4.00004 10.6667 4.00004C9.93029 4.00004 9.33333 4.59699 9.33333 5.33337C9.33333 6.06975 9.93029 6.66671 10.6667 6.66671Z" fill="#A3A3A3"/>
<path fill-rule="evenodd" clip-rule="evenodd" d="M1.33333 3.33337C1.33333 2.2288 2.22876 1.33337 3.33333 1.33337H12.6667C13.7712 1.33337 14.6667 2.2288 14.6667 3.33337V12.6667C14.6667 13.7713 13.7712 14.6667 12.6667 14.6667H3.33333C2.22876 14.6667 1.33333 13.7713 1.33333 12.6667V3.33337ZM3.33333 2.66671H12.6667C13.0349 2.66671 13.3333 2.96518 13.3333 3.33337V12.6667C13.3333 12.8186 13.2825 12.9587 13.197 13.0708C13.1765 13.0436 13.1544 13.017 13.1306 12.991L7.04603 6.35329C6.22784 5.46072 4.81044 5.49418 4.03528 6.42437L2.66667 8.06671V3.33337C2.66667 2.96518 2.96514 2.66671 3.33333 2.66671ZM2.66667 10.1494V12.6667C2.66667 13.0349 2.96514 13.3334 3.33333 13.3334H11.6357L6.06316 7.25425C5.79043 6.95673 5.31796 6.96789 5.05958 7.27795L2.66667 10.1494Z" fill="#A3A3A3"/>
</svg>
