<svg width="16" height="16" viewBox="0 0 16 16" fill="none" xmlns="http://www.w3.org/2000/svg">
<path fill-rule="evenodd" clip-rule="evenodd" d="M3.33333 14C3.33333 13.6319 3.63181 13.3334 4 13.3334H12C12.3682 13.3334 12.6667 13.6319 12.6667 14C12.6667 14.3682 12.3682 14.6667 12 14.6667H4C3.63181 14.6667 3.33333 14.3682 3.33333 14Z" fill="#A3A3A3"/>
<path fill-rule="evenodd" clip-rule="evenodd" d="M4 1.33337C4.36819 1.33337 4.66667 1.63185 4.66667 2.00004V7.33337C4.66667 9.17432 6.15905 10.6667 8 10.6667C9.84095 10.6667 11.3333 9.17432 11.3333 7.33337V2.00004C11.3333 1.63185 11.6318 1.33337 12 1.33337C12.3682 1.33337 12.6667 1.63185 12.6667 2.00004V7.33337C12.6667 9.9107 10.5773 12 8 12C5.42267 12 3.33333 9.9107 3.33333 7.33337V2.00004C3.33333 1.63185 3.63181 1.33337 4 1.33337Z" fill="#A3A3A3"/>
</svg>
