<svg width="48" height="48" viewBox="0 0 48 48" fill="none" xmlns="http://www.w3.org/2000/svg">
<path d="M11.4852 18.8182H13.0165V26.0369C13.0165 26.6899 12.8872 27.2483 12.6287 27.7124C12.3735 28.1764 12.0139 28.531 11.5498 28.7763C11.0858 29.0182 10.5423 29.1392 9.91916 29.1392C9.34577 29.1392 8.83038 29.0348 8.373 28.826C7.91892 28.6172 7.55931 28.3139 7.29416 27.9162C7.03232 27.5152 6.90141 27.0279 6.90141 26.4545H8.42768C8.42768 26.7363 8.49231 26.9799 8.62158 27.1854C8.75415 27.3909 8.93479 27.5516 9.16348 27.6676C9.39549 27.7803 9.66064 27.8366 9.95893 27.8366C10.2837 27.8366 10.5588 27.7687 10.7842 27.6328C11.0129 27.4936 11.1869 27.2898 11.3062 27.0213C11.4256 26.7528 11.4852 26.4247 11.4852 26.0369V18.8182ZM15.1124 29V18.8182H18.7417C19.5338 18.8182 20.1901 18.9624 20.7104 19.2507C21.2308 19.5391 21.6202 19.9335 21.8788 20.4339C22.1373 20.9311 22.2666 21.4912 22.2666 22.1143C22.2666 22.7408 22.1356 23.3042 21.8738 23.8047C21.6153 24.3018 21.2242 24.6963 20.7005 24.9879C20.1801 25.2763 19.5256 25.4205 18.7367 25.4205H16.241V24.1179H18.5975C19.098 24.1179 19.504 24.0317 19.8156 23.8594C20.1271 23.6837 20.3558 23.4451 20.5016 23.1435C20.6475 22.8419 20.7204 22.4988 20.7204 22.1143C20.7204 21.7299 20.6475 21.3885 20.5016 21.0902C20.3558 20.7919 20.1255 20.5582 19.8106 20.3892C19.499 20.2202 19.0881 20.1357 18.5776 20.1357H16.6487V29H15.1124ZM23.9275 29V18.8182H30.311V20.1406H25.4637V23.2429H29.9779V24.5604H25.4637V27.6776H30.3707V29H23.9275ZM39.1137 22.0348C39.0176 21.7332 38.8883 21.4631 38.7259 21.2244C38.5668 20.9825 38.3762 20.777 38.1542 20.608C37.9321 20.4356 37.6786 20.3047 37.3935 20.2152C37.1118 20.1257 36.8019 20.081 36.4638 20.081C35.8904 20.081 35.3734 20.2285 34.9127 20.5234C34.452 20.8184 34.0874 21.2509 33.8189 21.821C33.5538 22.3878 33.4212 23.0821 33.4212 23.9041C33.4212 24.7294 33.5554 25.4271 33.8239 25.9972C34.0924 26.5672 34.4603 26.9998 34.9276 27.2947C35.3949 27.5897 35.9269 27.7372 36.5235 27.7372C37.077 27.7372 37.5592 27.6245 37.9702 27.3991C38.3845 27.1738 38.7044 26.8556 38.9297 26.4446C39.1584 26.0303 39.2728 25.5431 39.2728 24.983L39.6705 25.0575H36.7572V23.7898H40.7593V24.9482C40.7593 25.8033 40.577 26.5457 40.2124 27.1754C39.8511 27.8018 39.3507 28.2857 38.711 28.6271C38.0746 28.9685 37.3455 29.1392 36.5235 29.1392C35.6021 29.1392 34.7934 28.9271 34.0974 28.5028C33.4046 28.0786 32.8644 27.477 32.4766 26.6982C32.0888 25.916 31.8949 24.9879 31.8949 23.9141C31.8949 23.102 32.0076 22.3729 32.233 21.7266C32.4584 21.0803 32.7749 20.5317 33.1826 20.081C33.5936 19.6269 34.0758 19.2805 34.6293 19.0419C35.1861 18.8 35.7943 18.679 36.4539 18.679C37.0041 18.679 37.5161 18.7602 37.9901 18.9226C38.4674 19.085 38.8916 19.3153 39.2628 19.6136C39.6374 19.9119 39.9473 20.2666 40.1925 20.6776C40.4378 21.0852 40.6035 21.5376 40.6897 22.0348H39.1137Z" fill="#A3A3A3"/>
<rect x="0.5" y="0.5" width="47" height="47" rx="5.5" stroke="#96A0AF" stroke-opacity="0.3"/>
</svg>
