<svg width="48" height="48" viewBox="0 0 48 48" fill="none" xmlns="http://www.w3.org/2000/svg">
<rect width="48" height="48" rx="6" fill="#EDEDED"/>
<path d="M15.633 18.8182H17.1642V26.0369C17.1642 26.6899 17.035 27.2483 16.7765 27.7124C16.5212 28.1764 16.1616 28.531 15.6976 28.7763C15.2336 29.0182 14.69 29.1392 14.0669 29.1392C13.4935 29.1392 12.9782 29.0348 12.5208 28.826C12.0667 28.6172 11.7071 28.3139 11.4419 27.9162C11.1801 27.5152 11.0492 27.0279 11.0492 26.4545H12.5755C12.5755 26.7363 12.6401 26.9799 12.7694 27.1854C12.9019 27.3909 13.0826 27.5516 13.3113 27.6676C13.5433 27.7803 13.8084 27.8366 14.1067 27.8366C14.4315 27.8366 14.7066 27.7687 14.932 27.6328C15.1607 27.4936 15.3347 27.2898 15.454 27.0213C15.5733 26.7528 15.633 26.4247 15.633 26.0369V18.8182ZM19.2602 29V18.8182H22.8895C23.6816 18.8182 24.3379 18.9624 24.8582 19.2507C25.3786 19.5391 25.768 19.9335 26.0265 20.4339C26.2851 20.9311 26.4143 21.4912 26.4143 22.1143C26.4143 22.7408 26.2834 23.3042 26.0216 23.8047C25.7631 24.3018 25.372 24.6963 24.8483 24.9879C24.3279 25.2763 23.6733 25.4205 22.8845 25.4205H20.3888V24.1179H22.7453C23.2458 24.1179 23.6518 24.0317 23.9633 23.8594C24.2749 23.6837 24.5036 23.4451 24.6494 23.1435C24.7952 22.8419 24.8682 22.4988 24.8682 22.1143C24.8682 21.7299 24.7952 21.3885 24.6494 21.0902C24.5036 20.7919 24.2732 20.5582 23.9584 20.3892C23.6468 20.2202 23.2358 20.1357 22.7254 20.1357H20.7964V29H19.2602ZM34.9659 22.0348C34.8698 21.7332 34.7405 21.4631 34.5781 21.2244C34.419 20.9825 34.2285 20.777 34.0064 20.608C33.7843 20.4356 33.5308 20.3047 33.2457 20.2152C32.964 20.1257 32.6541 20.081 32.3161 20.081C31.7427 20.081 31.2256 20.2285 30.7649 20.5234C30.3042 20.8184 29.9396 21.2509 29.6712 21.821C29.406 22.3878 29.2734 23.0821 29.2734 23.9041C29.2734 24.7294 29.4077 25.4271 29.6761 25.9972C29.9446 26.5672 30.3125 26.9998 30.7798 27.2947C31.2472 27.5897 31.7791 27.7372 32.3757 27.7372C32.9292 27.7372 33.4115 27.6245 33.8224 27.3991C34.2367 27.1738 34.5566 26.8556 34.782 26.4446C35.0107 26.0303 35.125 25.5431 35.125 24.983L35.5227 25.0575H32.6094V23.7898H36.6115V24.9482C36.6115 25.8033 36.4292 26.5457 36.0646 27.1754C35.7034 27.8018 35.2029 28.2857 34.5632 28.6271C33.9269 28.9685 33.1977 29.1392 32.3757 29.1392C31.4543 29.1392 30.6456 28.9271 29.9496 28.5028C29.2569 28.0786 28.7166 27.477 28.3288 26.6982C27.9411 25.916 27.7472 24.9879 27.7472 23.9141C27.7472 23.102 27.8599 22.3729 28.0852 21.7266C28.3106 21.0803 28.6271 20.5317 29.0348 20.081C29.4458 19.6269 29.928 19.2805 30.4815 19.0419C31.0384 18.8 31.6465 18.679 32.3061 18.679C32.8563 18.679 33.3684 18.7602 33.8423 18.9226C34.3196 19.085 34.7438 19.3153 35.1151 19.6136C35.4896 19.9119 35.7995 20.2666 36.0447 20.6776C36.29 21.0852 36.4557 21.5376 36.5419 22.0348H34.9659Z" fill="#1D1D1D"/>
</svg>
