<svg width="24" height="24" viewBox="0 0 24 24" fill="none" xmlns="http://www.w3.org/2000/svg">
<path d="M20.3957 18.7615C20.3957 22.1732 15.7172 22.5675 12.1989 22.5675L11.9471 22.5673C9.7056 22.5619 4 22.4204 4 18.7408C4 15.3988 8.49056 14.9522 11.982 14.9353L12.4507 14.935C14.6921 14.9405 20.3957 15.082 20.3957 18.7615ZM12.1989 16.4875C7.78841 16.4875 5.55263 17.2451 5.55263 18.7408C5.55263 20.25 7.78841 21.0149 12.1989 21.0149C16.6084 21.0149 18.8431 20.2572 18.8431 18.7615C18.8431 17.2524 16.6084 16.4875 12.1989 16.4875ZM12.1989 2C15.2296 2 17.6942 4.46557 17.6942 7.4963C17.6942 10.527 15.2296 12.9916 12.1989 12.9916H12.1658C9.14127 12.9822 6.69122 10.5156 6.70154 7.49319C6.70154 4.46557 9.16714 2 12.1989 2ZM12.1989 3.4781C9.98279 3.4781 8.17965 5.28018 8.17965 7.4963C8.17243 9.70517 9.96209 11.5062 12.1689 11.5145L12.1989 12.2535V11.5145C14.414 11.5145 16.2161 9.71138 16.2161 7.4963C16.2161 5.28018 14.414 3.4781 12.1989 3.4781Z" fill="white"/>
<path d="M20.3957 18.7615C20.3957 22.1732 15.7172 22.5675 12.1989 22.5675L11.9471 22.5673C9.7056 22.5619 4 22.4204 4 18.7408C4 15.3988 8.49056 14.9522 11.982 14.9353L12.4507 14.935C14.6921 14.9405 20.3957 15.082 20.3957 18.7615ZM12.1989 16.4875C7.78841 16.4875 5.55263 17.2451 5.55263 18.7408C5.55263 20.25 7.78841 21.0149 12.1989 21.0149C16.6084 21.0149 18.8431 20.2572 18.8431 18.7615C18.8431 17.2524 16.6084 16.4875 12.1989 16.4875ZM12.1989 2C15.2296 2 17.6942 4.46557 17.6942 7.4963C17.6942 10.527 15.2296 12.9916 12.1989 12.9916H12.1658C9.14127 12.9822 6.69122 10.5156 6.70154 7.49319C6.70154 4.46557 9.16714 2 12.1989 2ZM12.1989 3.4781C9.98279 3.4781 8.17965 5.28018 8.17965 7.4963C8.17243 9.70517 9.96209 11.5062 12.1689 11.5145L12.1989 12.2535V11.5145C14.414 11.5145 16.2161 9.71138 16.2161 7.4963C16.2161 5.28018 14.414 3.4781 12.1989 3.4781Z" stroke="white"/>
</svg>
