<svg width="48" height="48" viewBox="0 0 48 48" fill="none" xmlns="http://www.w3.org/2000/svg">
<path d="M10.3084 29V18.8182H13.9377C14.7298 18.8182 15.3861 18.9624 15.9064 19.2507C16.4268 19.5391 16.8162 19.9335 17.0747 20.4339C17.3333 20.9311 17.4625 21.4912 17.4625 22.1143C17.4625 22.7408 17.3316 23.3042 17.0698 23.8047C16.8113 24.3018 16.4202 24.6963 15.8965 24.9879C15.3761 25.2763 14.7215 25.4205 13.9327 25.4205H11.437V24.1179H13.7935C14.294 24.1179 14.7 24.0317 15.0115 23.8594C15.3231 23.6837 15.5518 23.4451 15.6976 23.1435C15.8435 22.8419 15.9164 22.4988 15.9164 22.1143C15.9164 21.7299 15.8435 21.3885 15.6976 21.0902C15.5518 20.7919 15.3214 20.5582 15.0066 20.3892C14.695 20.2202 14.284 20.1357 13.7736 20.1357H11.8446V29H10.3084ZM27.3415 18.8182V29H25.9296L20.7542 21.5327H20.6597V29H19.1235V18.8182H20.5454L25.7258 26.2955H25.8202V18.8182H27.3415ZM36.3331 22.0348C36.237 21.7332 36.1077 21.4631 35.9453 21.2244C35.7862 20.9825 35.5956 20.777 35.3736 20.608C35.1515 20.4356 34.898 20.3047 34.6129 20.2152C34.3312 20.1257 34.0213 20.081 33.6832 20.081C33.1099 20.081 32.5928 20.2285 32.1321 20.5234C31.6714 20.8184 31.3068 21.2509 31.0384 21.821C30.7732 22.3878 30.6406 23.0821 30.6406 23.9041C30.6406 24.7294 30.7749 25.4271 31.0433 25.9972C31.3118 26.5672 31.6797 26.9998 32.147 27.2947C32.6144 27.5897 33.1463 27.7372 33.7429 27.7372C34.2964 27.7372 34.7787 27.6245 35.1896 27.3991C35.6039 27.1738 35.9238 26.8556 36.1492 26.4446C36.3778 26.0303 36.4922 25.5431 36.4922 24.983L36.8899 25.0575H33.9766V23.7898H37.9787V24.9482C37.9787 25.8033 37.7964 26.5457 37.4318 27.1754C37.0706 27.8018 36.5701 28.2857 35.9304 28.6271C35.294 28.9685 34.5649 29.1392 33.7429 29.1392C32.8215 29.1392 32.0128 28.9271 31.3168 28.5028C30.6241 28.0786 30.0838 27.477 29.696 26.6982C29.3082 25.916 29.1144 24.9879 29.1144 23.9141C29.1144 23.102 29.227 22.3729 29.4524 21.7266C29.6778 21.0803 29.9943 20.5317 30.402 20.081C30.813 19.6269 31.2952 19.2805 31.8487 19.0419C32.4055 18.8 33.0137 18.679 33.6733 18.679C34.2235 18.679 34.7356 18.7602 35.2095 18.9226C35.6868 19.085 36.111 19.3153 36.4822 19.6136C36.8568 19.9119 37.1667 20.2666 37.4119 20.6776C37.6572 21.0852 37.8229 21.5376 37.9091 22.0348H36.3331Z" fill="#A3A3A3"/>
<rect x="0.5" y="0.5" width="47" height="47" rx="5.5" stroke="#96A0AF" stroke-opacity="0.3"/>
</svg>
