<svg width="48" height="48" viewBox="0 0 48 48" fill="none" xmlns="http://www.w3.org/2000/svg">
<rect width="48" height="48" rx="6" fill="#EDEDED"/>
<path d="M11.2244 29V18.8182H14.8537C15.6458 18.8182 16.3021 18.9624 16.8224 19.2507C17.3428 19.5391 17.7322 19.9335 17.9908 20.4339C18.2493 20.9311 18.3785 21.4912 18.3785 22.1143C18.3785 22.7408 18.2476 23.3042 17.9858 23.8047C17.7273 24.3018 17.3362 24.6963 16.8125 24.9879C16.2921 25.2763 15.6375 25.4205 14.8487 25.4205H12.353V24.1179H14.7095C15.21 24.1179 15.616 24.0317 15.9276 23.8594C16.2391 23.6837 16.4678 23.4451 16.6136 23.1435C16.7595 22.8419 16.8324 22.4988 16.8324 22.1143C16.8324 21.7299 16.7595 21.3885 16.6136 21.0902C16.4678 20.7919 16.2374 20.5582 15.9226 20.3892C15.611 20.2202 15.2 20.1357 14.6896 20.1357H12.7607V29H11.2244ZM25.5928 21.4929C25.5397 21.0223 25.321 20.6577 24.9365 20.3991C24.5521 20.1373 24.0682 20.0064 23.4848 20.0064C23.0672 20.0064 22.7059 20.0727 22.401 20.2053C22.0961 20.3345 21.8591 20.5135 21.6901 20.7422C21.5244 20.9676 21.4415 21.2244 21.4415 21.5128C21.4415 21.7547 21.4978 21.9635 21.6105 22.1392C21.7265 22.3149 21.8773 22.4624 22.0629 22.5817C22.2519 22.6977 22.454 22.7955 22.6695 22.875C22.8849 22.9512 23.0921 23.0142 23.2909 23.0639L24.2852 23.3224C24.6101 23.402 24.9432 23.5097 25.2845 23.6456C25.6259 23.7815 25.9424 23.9605 26.2341 24.1825C26.5258 24.4046 26.7611 24.6797 26.9401 25.0078C27.1224 25.3359 27.2135 25.7287 27.2135 26.1861C27.2135 26.7628 27.0644 27.2749 26.7661 27.7223C26.4711 28.1697 26.0419 28.5227 25.4784 28.7812C24.9183 29.0398 24.2405 29.169 23.445 29.169C22.6827 29.169 22.0232 29.0481 21.4664 28.8061C20.9095 28.5642 20.4737 28.2211 20.1588 27.777C19.844 27.3295 19.67 26.7992 19.6368 26.1861H21.178C21.2078 26.554 21.3271 26.8606 21.536 27.1058C21.7481 27.3478 22.0182 27.5284 22.3463 27.6477C22.6778 27.7637 23.0407 27.8217 23.4351 27.8217C23.8693 27.8217 24.2554 27.7538 24.5935 27.6179C24.9349 27.4787 25.2033 27.2865 25.3989 27.0412C25.5944 26.7926 25.6922 26.5026 25.6922 26.1712C25.6922 25.8696 25.606 25.6226 25.4337 25.4304C25.2646 25.2382 25.0343 25.0791 24.7426 24.9531C24.4543 24.8272 24.1278 24.7161 23.7632 24.62L22.5601 24.2919C21.7448 24.0698 21.0985 23.7434 20.6212 23.3125C20.1472 22.8816 19.9102 22.3116 19.9102 21.6023C19.9102 21.0156 20.0693 20.5036 20.3875 20.0661C20.7057 19.6286 21.1366 19.2888 21.6801 19.0469C22.2237 18.8016 22.8369 18.679 23.5196 18.679C24.209 18.679 24.8172 18.8 25.3442 19.0419C25.8745 19.2839 26.2921 19.617 26.597 20.0412C26.902 20.4621 27.0611 20.946 27.0743 21.4929H25.5928ZM32.2054 29H28.9093V18.8182H32.3098C33.3075 18.8182 34.1642 19.022 34.8802 19.4297C35.5961 19.834 36.1446 20.4157 36.5258 21.1747C36.9102 21.9304 37.1025 22.8369 37.1025 23.8942C37.1025 24.9548 36.9086 25.8662 36.5208 26.6286C36.1363 27.3909 35.5795 27.9775 34.8503 28.3885C34.1212 28.7962 33.2395 29 32.2054 29ZM30.4455 27.6577H32.1209C32.8965 27.6577 33.5411 27.5118 34.0549 27.2202C34.5686 26.9252 34.9531 26.4993 35.2083 25.9425C35.4635 25.3823 35.5911 24.6996 35.5911 23.8942C35.5911 23.0954 35.4635 22.4176 35.2083 21.8608C34.9564 21.304 34.5802 20.8814 34.0797 20.593C33.5793 20.3047 32.9578 20.1605 32.2154 20.1605H30.4455V27.6577Z" fill="#1D1D1D"/>
</svg>
