<svg width="24" height="24" viewBox="0 0 24 24" fill="none" xmlns="http://www.w3.org/2000/svg">
<path fill-rule="evenodd" clip-rule="evenodd" d="M16.1887 2C19.3933 2 22 4.80603 22 8.25671V15.7433C22 19.1929 19.3933 22 16.1887 22H7.8123C4.60768 22 2 19.1929 2 15.7433V8.25671C2 4.80603 4.60768 2 7.8123 2H16.1887ZM16.1887 3.5647H7.8123C5.40908 3.5647 3.45356 5.66974 3.45356 8.25671V15.7433C3.45356 18.3303 5.40908 20.4353 7.8123 20.4353H16.1887C18.5919 20.4353 20.5464 18.3303 20.5464 15.7433V15.4512L17.3506 15.4518C15.5124 15.4518 14.0162 13.8423 14.0152 11.8645C14.0152 9.88463 15.5114 8.27403 17.3506 8.27299L20.5464 8.27236V8.25671C20.5464 5.66974 18.5919 3.5647 16.1887 3.5647ZM20.5464 9.83706L17.3506 9.83769C16.3128 9.83873 15.4688 10.7473 15.4688 11.8635C15.4688 12.9786 16.3138 13.8871 17.3506 13.8871L20.5464 13.8865V9.83706ZM17.7941 11.0164C18.1953 11.0164 18.5209 11.3669 18.5209 11.7988C18.5209 12.2306 18.1953 12.5811 17.7941 12.5811H17.4917C17.0906 12.5811 16.765 12.2306 16.765 11.7988C16.765 11.3669 17.0906 11.0164 17.4917 11.0164H17.7941ZM12.3542 6.73384C12.7554 6.73384 13.081 7.08434 13.081 7.51619C13.081 7.94805 12.7554 8.29854 12.3542 8.29854H7.12234C6.72116 8.29854 6.39556 7.94805 6.39556 7.51619C6.39556 7.08434 6.72116 6.73384 7.12234 6.73384H12.3542Z" fill="white"/>
</svg>
